<svg width="57" height="37" viewBox="0 0 57 37" fill="none" xmlns="http://www.w3.org/2000/svg">
<path d="M15.9424 0.793319C24.7473 0.793319 31.8851 7.93107 31.8851 16.7359C31.8851 25.5408 24.7473 32.6786 15.9424 32.6786C7.13755 32.6786 -0.000208506 25.5408 -0.000208506 16.7359C-0.000208506 7.93107 7.13755 0.793319 15.9424 0.793319ZM15.9425 28.8328C22.6127 28.8328 28.0393 23.4062 28.0393 16.736C28.0393 10.0659 22.6127 4.63923 15.9425 4.63923C9.27234 4.63923 3.84571 10.0659 3.84571 16.736C3.84571 23.4062 9.27225 28.8328 15.9425 28.8328Z" fill="white"/>
<path d="M15.9424 7.88177C20.8246 7.88177 24.7966 11.8538 24.7966 16.736C24.7966 21.6183 20.8246 25.5903 15.9424 25.5903C11.0601 25.5903 7.08813 21.6183 7.08813 16.736C7.08813 11.8538 11.06 7.88177 15.9424 7.88177Z" fill="white"/>
<path d="M38.7365 14.2324C37.5102 13.4897 36.6906 12.1429 36.6906 10.6045L37.298 0.673675C37.3212 0.295138 37.635 0 38.0143 0C38.4245 0 38.7513 0.343654 38.7309 0.753124L38.3359 8.71772C38.3359 9.16545 38.6989 9.52829 39.1465 9.52829C39.5941 9.52829 39.9571 9.16527 39.9571 8.71772L40.1544 0.756415C40.1649 0.335662 40.5089 9.39713e-05 40.9298 9.39713e-05C41.3508 9.39713e-05 41.6947 0.335756 41.7052 0.756415L41.9026 8.71772C41.9026 9.16545 42.2656 9.52829 42.7132 9.52829C43.1608 9.52829 43.5237 9.16527 43.5237 8.71772L43.1287 0.753124C43.1084 0.343466 43.4354 0 43.8454 0C44.2247 0 44.5384 0.295138 44.5616 0.673675L45.1692 10.6046C45.1692 12.143 44.3497 13.4897 43.1234 14.2325C42.3253 14.7159 41.8804 15.6197 41.9833 16.5471C42.6755 22.7863 43.1457 32.9723 43.1457 34.0818C43.1457 35.6936 42.1536 37.0001 40.9299 37.0001C39.7062 37.0001 38.7142 35.6935 38.7142 34.0818C38.7142 32.9723 39.1844 22.7863 39.8766 16.5471C39.9795 15.6201 39.5341 14.7156 38.7365 14.2324Z" fill="white"/>
<circle r="2" transform="matrix(-1.00291 0 0 1.00291 54.1641 17.632)" fill="white"/>
</svg>
