<svg width="17" height="17" viewBox="0 0 17 17" fill="none" xmlns="http://www.w3.org/2000/svg">
<path d="M13.4158 12.2325L17.0001 15.8159L15.8159 17.0001L12.2325 13.4158C10.8991 14.4847 9.24068 15.066 7.5318 15.0636C3.37425 15.0636 0 11.6894 0 7.5318C0 3.37425 3.37425 0 7.5318 0C11.6894 0 15.0636 3.37425 15.0636 7.5318C15.066 9.24068 14.4847 10.8991 13.4158 12.2325ZM11.7371 11.6115C12.7991 10.5193 13.3923 9.05526 13.3899 7.5318C13.3899 4.2948 10.768 1.67373 7.5318 1.67373C4.2948 1.67373 1.67373 4.2948 1.67373 7.5318C1.67373 10.768 4.2948 13.3899 7.5318 13.3899C9.05526 13.3923 10.5193 12.7991 11.6115 11.7371L11.7371 11.6115Z" fill="#9B9B9B"/>
</svg>
