<svg width="18" height="18" viewBox="0 0 18 18" fill="none" xmlns="http://www.w3.org/2000/svg">
<path d="M10.3059 1.10974C9.59029 0.394102 8.63881 0 7.6268 0C6.6148 0 5.66332 0.394102 4.94775 1.10974L3.40137 2.65613L8.75951 8.01427L10.3059 6.46788C11.7831 4.99065 11.7831 2.58698 10.3059 1.10974Z" fill="#9B9B9B"/>
<path d="M2.65531 3.40234L1.10893 4.9487C-0.36834 6.42593 -0.36834 8.82961 1.10893 10.3068C1.82453 11.0225 2.77597 11.4166 3.78798 11.4166C4.79998 11.4166 5.75145 11.0225 6.46706 10.3068L8.01341 8.76049L2.65531 3.40234Z" fill="#9B9B9B"/>
<path d="M16.8913 7.69495C16.1757 6.97931 15.2243 6.58521 14.2123 6.58521C13.2003 6.58521 12.2488 6.97931 11.5332 7.69495L9.98682 9.24131L15.345 14.5995L16.8913 13.0531C18.3686 11.5759 18.3686 9.17219 16.8913 7.69495Z" fill="#9B9B9B"/>
<path d="M9.24025 9.98755L7.69386 11.5339C6.21663 13.0111 6.21663 15.4148 7.69386 16.892C8.4325 17.6306 9.40271 17.9999 10.373 17.9999C11.3432 17.9999 12.3134 17.6306 13.052 16.892L14.5984 15.3457L9.24025 9.98755Z" fill="#9B9B9B"/>
</svg>
