<svg width="57" height="48" viewBox="0 0 57 48" fill="none" xmlns="http://www.w3.org/2000/svg">
<path d="M39.1107 7.21021C30.3314 7.21021 23.2144 14.3272 23.2144 23.1065C23.2144 31.8859 30.3314 39.0029 39.1107 39.0029C47.89 39.0029 55.007 31.8859 55.007 23.1065C55.007 14.3272 47.89 7.21021 39.1107 7.21021ZM39.1106 35.1683C32.4598 35.1683 27.0489 29.7575 27.0489 23.1066C27.0489 16.4558 32.4598 11.045 39.1106 11.045C45.7614 11.045 51.1723 16.4558 51.1723 23.1066C51.1723 29.7575 45.7615 35.1683 39.1106 35.1683Z" fill="#9B9B9B"/>
<path d="M39.1108 14.2781C34.2427 14.2781 30.2822 18.2385 30.2822 23.1066C30.2822 27.9747 34.2427 31.9352 39.1108 31.9352C43.9788 31.9352 47.9393 27.9747 47.9393 23.1066C47.9393 18.2385 43.9789 14.2781 39.1108 14.2781Z" fill="#9B9B9B"/>
<path d="M17.3828 20.6103C18.6055 19.8697 19.4228 18.5268 19.4228 16.9929L18.8171 7.09091C18.794 6.71347 18.4811 6.41919 18.1029 6.41919C17.6939 6.41919 17.368 6.76185 17.3884 7.17013L17.7822 15.1116C17.7822 15.558 17.4202 15.9198 16.974 15.9198C16.5277 15.9198 16.1658 15.5578 16.1658 15.1116L15.969 7.17341C15.9586 6.75388 15.6156 6.41928 15.1958 6.41928C14.7761 6.41928 14.4332 6.75397 14.4227 7.17341L14.2259 15.1116C14.2259 15.558 13.8639 15.9198 13.4177 15.9198C12.9713 15.9198 12.6095 15.5578 12.6095 15.1116L13.0033 7.17013C13.0236 6.76166 12.6975 6.41919 12.2887 6.41919C11.9106 6.41919 11.5977 6.71347 11.5747 7.09091L10.9688 16.993C10.9688 18.5269 11.7859 19.8697 13.0087 20.6104C13.8044 21.0924 14.248 21.9935 14.1455 22.9183C13.4552 29.1393 12.9864 39.2957 12.9864 40.4021C12.9864 42.0091 13.9756 43.3119 15.1958 43.3119C16.4159 43.3119 17.4051 42.009 17.4051 40.4021C17.4051 39.2957 16.9362 29.1393 16.246 22.9183C16.1434 21.994 16.5875 21.0921 17.3828 20.6103Z" fill="#9B9B9B"/>
<circle cx="2" cy="24" r="2" fill="#9B9B9B"/>
</svg>
