<svg width="17" height="17" viewBox="0 0 17 17" fill="none" xmlns="http://www.w3.org/2000/svg">
<path d="M0 8.49996H16.9999V16.1499C16.9999 16.3754 16.9104 16.5916 16.751 16.751C16.5916 16.9104 16.3754 16.9999 16.1499 16.9999H0.849996C0.624563 16.9999 0.408363 16.9104 0.248958 16.751C0.0895528 16.5916 0 16.3754 0 16.1499V8.49996ZM12.7499 1.69999H16.1499C16.3754 1.69999 16.5916 1.78954 16.751 1.94895C16.9104 2.10835 16.9999 2.32455 16.9999 2.54999V6.79997H0V2.54999C0 2.32455 0.0895528 2.10835 0.248958 1.94895C0.408363 1.78954 0.624563 1.69999 0.849996 1.69999H4.24998V0H5.94997V1.69999H11.0499V0H12.7499V1.69999Z" fill="#9B9B9B"/>
</svg>
